<?xml version="1.0" encoding="UTF-8"?>
<svg id="_레이어_1" data-name=" 레이어 1" xmlns="http://www.w3.org/2000/svg" version="1.1" viewBox="0 0 1686.3 600">
  <defs>
    <style>
      .cls-1 {
        fill: #161619;
        stroke-width: 0px;
      }
    </style>
  </defs>
  <path class="cls-1" d="M789.3,198.3c0-103.2,95.3-188,216.8-196.9,11.5-.8,21.3,6.6,21.3,16.1v186.5c130.9.6,236.8,88.9,236.8,197.7,0,103.2-95.3,188-216.8,196.9-11.5.8-21.3-6.6-21.3-16.1v-186.5c-130.9-.6-236.8-88.9-236.8-197.7Z"/>
  <path class="cls-1" d="M250.4.6c-1,0-2,0-3,0-.1,0-.2,0-.4,0H18.4C8.2.6,0,10.5,0,22.6v554.9c0,12.1,8.2,22,18.4,22h228.7c.1,0,.2,0,.4,0,1,0,2,0,3,0,138.3,0,250.4-134,250.4-299.4S388.7.6,250.4.6Z"/>
  <rect class="cls-1" x="563.9" y=".7" width="183.5" height="598.7" rx="20" ry="20"/>
  <path class="cls-1" d="M1686.3,198.3c0-109.2-88.5-197.7-197.7-197.7v.9c-.6-.5-1.3-.8-2.1-.8h-158.9c-11.8,0-21.4,9.6-21.4,21.4v555.9c0,11.8,9.6,21.4,21.4,21.4h140.7c11.8,0,21.4-9.6,21.4-21.4v-182c108.7-.6,196.6-88.9,196.6-197.7Z"/>
</svg>