<?xml version="1.0" encoding="utf-8"?>
<!-- Generator: Adobe Illustrator 27.2.0, SVG Export Plug-In . SVG Version: 6.00 Build 0)  -->
<svg version="1.1" id="Layer_1" xmlns="http://www.w3.org/2000/svg" xmlns:xlink="http://www.w3.org/1999/xlink" x="0px" y="0px"
	 viewBox="0 0 805.3 525.6" style="enable-background:new 0 0 805.3 525.6;" xml:space="preserve">
<style type="text/css">
	.st0{fill:#FFFFFF;stroke:#000000;stroke-width:2;stroke-linecap:round;stroke-miterlimit:10;}
	.st1{fill:#FFFFFF;}
	.st2{fill:#7E7E86;}
	.st3{fill:#FFFFFF;stroke:#000000;stroke-width:2;stroke-linecap:round;stroke-linejoin:bevel;stroke-miterlimit:10;}
</style>
<g id="그룹_209" transform="translate(1 1.013)">
	
		<ellipse id="타원_46" transform="matrix(0.9977 -6.787599e-02 6.787599e-02 0.9977 -32.7171 28.2919)" class="st0" cx="400" cy="495.6" rx="112.7" ry="20.3"/>
	<g id="패스_151" transform="translate(-5422.684 -4254.259)">
		<path class="st1" d="M5448.2,4769.1v-445.5l773.4-53.9v445.5L5448.2,4769.1z"/>
		<path d="M5449.2,4768l771.4-53.7v-443.5l-771.4,53.7V4768 M5454,4770.2l-6.8-447.5l775.4-54v447.5L5454,4770.2z"/>
	</g>
	<g id="패스_152" transform="translate(-5417.702 -4250.698)">
		<path class="st2" d="M5483.2,4737v-394.6l693.6-47.7v394.6L5483.2,4737z"/>
		<path d="M5484.2,4735.9l691.6-47.6v-392.6l-691.6,47.6V4735.9 M5482.2,4738.1v-396.6l695.6-47.9v396.6L5482.2,4738.1z"/>
	</g>
	<path id="패스_153" class="st3" d="M800,16.7L759.5,0L0,48.3v445.1l31.4,22.5V70.4L800,16.7z"/>
</g>
</svg>
