<?xml version="1.0" encoding="UTF-8"?>
<svg data-bbox="0 0 45.1 44" viewBox="0 0 45.1 44" xmlns="http://www.w3.org/2000/svg" data-type="color">
    <g>
        <path d="M9.7 0h25.7c5.4 0 9.7 4.3 9.7 9.7v24.6c0 5.4-4.3 9.7-9.7 9.7H9.7C4.3 44 0 39.7 0 34.3V9.7C0 4.3 4.3 0 9.7 0z" fill="#470137" data-color="1"/>
        <path d="M23.77 11.564l-5.6 9.3 6 9.9v.2c0 .1-.1 0-.2 0h-4.3c-.3 0-.5 0-.6-.2-.4-.8-.8-1.6-1.2-2.3-.4-.8-.8-1.6-1.3-2.4-.5-.8-1-1.6-1.4-2.4-.4.8-.8 1.6-1.3 2.4s-.9 1.6-1.3 2.4c-.4.8-.9 1.6-1.3 2.4-.1.2-.2.2-.4.2h-4.3v-.2l5.8-9.6-5.6-9.7c-.1-.1-.1-.1 0-.2 0-.1.1-.1.2-.1h4.6c0 .1 0 .1.1.2.3.8.7 1.6 1.2 2.4.4.8.9 1.6 1.3 2.4.5.8.9 1.6 1.3 2.4l1.2-2.4c.4-.8.8-1.6 1.3-2.4.4-.8.9-1.6 1.3-2.4 0-.1.1-.1.1-.2h4.2c.1 0 .2 0 .2.1v.2z" fill="#ff61f6" data-color="2"/>
        <path d="M32.41 31.432c-1.4 0-2.8-.3-4-.8-1.2-.5-2.2-1.4-2.8-2.6-.7-1.3-1.1-2.8-1-4.3 0-1.4.3-2.8 1-4 .7-1.2 1.7-2.2 3-2.9 1.5-.8 3.1-1.1 4.8-1.1h1v-6c-.1 0-.1-.1 0-.1h3.8c.1 0 .2 0 .2.1v19c0 .4.1.8.1 1.1 0 .1-.1.2-.2.3-1 .4-2 .7-3.1.9-.8.3-1.8.4-2.8.4zm1.8-3.8v-8.2c-.2 0-.3-.1-.5-.1h-.6c-.7 0-1.5.2-2.1.5-.6.3-1.2.8-1.6 1.4-.4.7-.7 1.5-.6 2.4 0 .7.1 1.3.3 1.9.2.5.5 1 .8 1.3.4.3.8.6 1.3.8.5.2 1 .2 1.6.2h.8c.2-.1.4-.1.6-.2z" fill="#ff61f6" data-color="2"/>
    </g>
</svg>
